<mxfile host="app.diagrams.net" modified="2024-02-08T19:44:02.288Z" agent="Mozilla/5.0 (Macintosh; Intel Mac OS X 10.15; rv:109.0) Gecko/20100101 Firefox/115.0" version="23.1.2" etag="64sXSHGAFmRetidEl-S3" type="github">
  <diagram name="Page-1" id="-N2AwDm5ZJXN0mFRG4Hs">
    <mxGraphModel>
      <root>
        <mxCell id="0" />
        <mxCell id="1" parent="0" />
      </root>
    </mxGraphModel>
  </diagram>
</mxfile>
